<?xml version="1.0" encoding="UTF-8"?>
<svg id="Layer_2" data-name="Layer 2" xmlns="http://www.w3.org/2000/svg" viewBox="0 0 138.16 34.42">
  <defs>
    <style>
      .cls-1 {
        fill: #0086cf;
      }

      .cls-1, .cls-2, .cls-3, .cls-4, .cls-5 {
        stroke-width: 0px;
      }

      .cls-2 {
        fill: #000;
      }

      .cls-3 {
        fill-rule: evenodd;
      }

      .cls-3, .cls-4 {
        fill: #ff0d00;
      }

      .cls-5 {
        fill: #fff;
      }
    </style>
  </defs>
  <g>
    <path class="cls-2" d="M0,24.28h86.72V0H0v24.28ZM94.98,0h-7.86v24.28h51.04V0h-43.18Z"/>
    <rect class="cls-1" x="93.9" y="18.34" width="8.37" height="2.53"/>
    <rect class="cls-4" x="102.27" y="18.34" width="7.89" height="2.53"/>
    <path class="cls-5" d="M76.03,20.86v-2.48h1.58v.34h-1.21v.72h1.03v.33h-1.03v.74h1.21v.34h-1.58ZM69.89,20.86l-.52-1.04h-.47v1.04h-.38v-2.48h.96c.47,0,.77.3.77.72,0,.35-.22.58-.49.66l.57,1.1h-.44ZM69.46,18.72h-.56v.78h.56c.25,0,.42-.14.42-.39s-.17-.39-.42-.39ZM62.51,20.61c-.17.17-.39.26-.65.26s-.48-.09-.65-.26c-.24-.24-.24-.52-.24-.99s0-.75.24-1c.17-.17.39-.26.65-.26s.48.09.65.26c.24.24.24.52.24,1s0,.75-.24.99ZM62.22,18.85c-.09-.09-.22-.15-.37-.15s-.28.06-.37.15c-.12.13-.15.27-.15.77s.02.64.15.77c.09.09.22.15.37.15s.28-.06.37-.15c.12-.13.15-.27.15-.77s-.02-.64-.15-.77ZM54.79,18.72v2.14h-.38v-2.14h-.68v-.34h1.74v.34h-.68ZM47.33,20.88c-.37,0-.64-.09-.88-.33l.25-.25c.18.18.38.24.63.24.32,0,.51-.14.51-.38,0-.11-.03-.2-.1-.26-.06-.06-.13-.08-.27-.1l-.29-.04c-.2-.03-.36-.1-.47-.2-.12-.11-.18-.27-.18-.47,0-.43.31-.73.83-.73.33,0,.56.08.77.28l-.24.24c-.15-.15-.33-.19-.54-.19-.29,0-.45.17-.45.39,0,.09.03.17.09.23.06.06.16.1.28.11l.28.04c.23.04.36.09.46.18.14.12.2.3.2.51,0,.45-.37.73-.89.73ZM79.76,8.53h-11.48c-.6,0-1.21.46-1.36,1.04l-1.28,4.89c-.17.76.64,1.58,1.72,1.59h10.39c.08,0,.16-.06.18-.14l.27-.99c.02-.07-.03-.14-.1-.14h-7.84c-1.14,0-.96-.67-.75-1.44l.16-.6s.05-.06.09-.06h8.81c.08,0,.16-.06.18-.14l.24-.91c.02-.08-.03-.14-.1-.14h-8.77c-.07,0-.09-.04-.08-.09.02-.05.25-.95.25-.95.19-.7.47-.8,1.39-.8h7.81c.08,0,.16-.06.18-.14l.23-.86c.02-.07-.03-.14-.1-.14ZM52.01,8.53h-3.37c-.08,0-.16.06-.18.14l-1.22,4.57c-.33,1.25-.88,1.53-1.83,1.53h-3.65c-1.16,0-1.24-.66-1.02-1.53l1.22-4.58c.02-.07-.02-.14-.1-.14h-3.34c-.08,0-.16.06-.18.14l-1.42,5.28c-.31,1.15.41,2.09,1.61,2.09h9.45c1.19,0,2.42-.95,2.73-2.1l1.4-5.27c.02-.07-.02-.14-.1-.14ZM37.29,8.53h-10.76c-.6,0-1.21.47-1.36,1.05l-1.2,4.48c-.29,1.1.44,2,1.64,2h9.98c.08,0,.16-.07.18-.14l.27-1c.02-.07-.03-.14-.11-.14h-7.1c-.85-.02-1.3-.65-1.03-1.45l.84-2.89c.21-.69.49-.8,1.17-.8h7.18c.08,0,.16-.06.18-.14l.23-.84c.02-.07-.03-.14-.11-.14ZM20.15,9.64c.62,0,1.27-.49,1.44-1.08l1.23-4.26c.17-.6-.2-1.08-.82-1.08h-4.58c-.62,0-1.27.49-1.44,1.08l-1.04,3.62c-.17.6-.82,1.08-1.44,1.08h-3.79c-.62,0-1.27.49-1.44,1.08l-1.22,4.26c-.17.6.2,1.08.82,1.08h3.67c.62,0,.99.49.82,1.08l-1.04,3.64c-.17.6.2,1.08.82,1.08h4.58c.62,0,1.27-.49,1.44-1.08l1.22-4.26c.17-.6-.2-1.08-.82-1.08h-3.67c-.62,0-.99-.49-.82-1.08l.86-2.99c.17-.6.82-1.08,1.44-1.08h3.79ZM64.25,8.54h-10.89c-.08,0-.16.06-.18.13l-1.95,7.23c-.02.07.02.13.1.13h11.11c2.03.02,2.33-1.05,2.6-2.08l.26-.96c.17-.58-.11-.85-.35-1.02-.1-.07-.12-.18,0-.23.27-.12.41-.21.53-.66l.36-1.31c.2-.72-.6-1.23-1.59-1.23ZM62.06,13.16l-.25.9c-.13.47-.54.69-.96.69h-6.05s.54-2.01.54-2.01h6.33c.2,0,.44.18.39.41ZM62.45,10.19l-.23.82c-.12.41-.49.48-.84.48h-5.7l.5-1.83h5.87c.44.01.51.12.4.52ZM128.73,16.13c-1.52,0-2.68-1.04-2.68-2.59v-4.96h1.14v4.91c0,1,.61,1.62,1.55,1.62s1.56-.62,1.56-1.62v-4.91h1.14v4.96c0,1.55-1.17,2.59-2.69,2.59ZM123.89,16.07l-.52-1.5h-2.96l-.52,1.5h-1.21l2.74-7.49h.91l2.75,7.49h-1.21ZM121.93,10.28l-1.17,3.32h2.3l-1.14-3.32ZM115.38,16.13c-1.12,0-1.94-.26-2.65-.99l.76-.75c.55.55,1.15.72,1.91.72.98,0,1.55-.42,1.55-1.15,0-.33-.09-.6-.29-.78-.19-.18-.38-.25-.82-.32l-.88-.13c-.61-.08-1.09-.29-1.42-.6-.37-.35-.55-.82-.55-1.43,0-1.3.95-2.2,2.5-2.2.99,0,1.68.25,2.32.85l-.73.72c-.46-.44-1-.58-1.63-.58-.88,0-1.37.51-1.37,1.17,0,.27.08.52.28.69.19.17.49.29.84.35l.85.13c.69.1,1.08.27,1.4.56.41.36.61.89.61,1.54,0,1.38-1.13,2.2-2.69,2.2ZM109.24,16.13c-1.13,0-1.94-.26-2.65-.99l.76-.75c.55.55,1.15.72,1.91.72.98,0,1.55-.42,1.55-1.15,0-.33-.09-.6-.29-.78-.19-.18-.38-.25-.82-.32l-.88-.13c-.61-.08-1.09-.29-1.42-.6-.37-.35-.55-.82-.55-1.43,0-1.3.95-2.2,2.5-2.2.99,0,1.68.25,2.32.85l-.73.72c-.46-.44-1-.58-1.63-.58-.88,0-1.37.51-1.37,1.17,0,.27.08.52.28.69.19.17.49.29.84.35l.85.13c.69.1,1.08.27,1.4.56.41.36.61.89.61,1.54,0,1.38-1.12,2.2-2.69,2.2ZM100.91,16.07v-7.49h4.79v1.02h-3.65v2.19h3.11v1.01h-3.11v2.25h3.65v1.02h-4.79ZM98.48,15.37c-.47.47-1.16.7-1.94.7h-2.63v-7.49h2.63c.78,0,1.46.23,1.94.7.81.81.76,1.9.76,2.99s.05,2.28-.76,3.09ZM97.7,10.11c-.32-.35-.74-.51-1.27-.51h-1.38v5.45h1.38c.54,0,.96-.16,1.27-.5.39-.43.4-1.24.4-2.27s-.01-1.74-.4-2.17Z"/>
  </g>
  <g>
    <polygon class="cls-3" points="138.16 26.43 28.95 26.43 31.27 34.42 138.16 34.42 138.16 26.43"/>
    <path class="cls-5" d="M77.22,32.1h1v-1.25c0-.42.27-.61.62-.61.33,0,.52.16.52.48v1.38h1v-1.68c0-.63-.46-.93-1.08-.93-.5,0-.87.18-1.07.43h0v-.37h-.97v2.55ZM73.26,30.83c0,.9.63,1.38,1.78,1.38s1.78-.47,1.78-1.38-.63-1.38-1.78-1.38-1.78.47-1.78,1.38ZM75.05,30.11c.45,0,.73.24.73.72s-.28.72-.73.72-.73-.24-.73-.72.28-.72.73-.72ZM70.87,32.1h1.14l1.17-2.55h-1.13l-.61,1.68-.61-1.68h-1.13l1.17,2.55ZM66.67,31.34c-.12.15-.28.29-.6.29-.51,0-.75-.24-.8-.57h2.5v-.08c0-1.06-.68-1.54-1.77-1.54s-1.76.47-1.76,1.37.64,1.38,1.78,1.38c1.08,0,1.57-.44,1.69-.86h-1.05ZM65.27,30.55c.06-.28.27-.52.74-.52s.68.24.74.52h-1.47ZM62.82,32.1h1v-3.44h-1v3.44ZM61.26,31.07c0,.35-.32.56-.89.56-.27,0-.45-.11-.45-.31,0-.15.08-.23.29-.26l.67-.08c.18-.02.31-.05.38-.07v.15ZM60.02,30.35c.05-.22.23-.32.59-.32.44,0,.63.09.63.27,0,.13-.04.19-.3.21l-.99.07c-.71.05-1.1.25-1.1.83,0,.53.43.79,1.24.79.5,0,.91-.07,1.2-.34,0,.07.02.16.05.23h1c-.08-.15-.1-.24-.1-.46v-1.29c0-.71-.69-.86-1.62-.86-.78,0-1.5.11-1.59.86h1ZM57.44,29.26h1v-.6h-1v.6ZM57.44,32.1h1v-2.55h-1v2.55ZM55.88,32.1h1v-3.44h-1v3.44ZM54.32,29.26h1v-.6h-1v.6ZM54.32,32.1h1v-2.55h-1v2.55ZM50.81,32.1h1.12v-1.3h1.93v-.72h-1.93v-.58h2.08v-.75h-3.2v3.35ZM47.4,31.34c-.12.15-.28.29-.6.29-.51,0-.75-.24-.8-.57h2.5v-.08c0-1.06-.68-1.54-1.77-1.54s-1.76.47-1.76,1.37.64,1.38,1.78,1.38c1.08,0,1.57-.44,1.69-.86h-1.05ZM46,30.55c.06-.28.27-.52.74-.52s.68.24.74.52h-1.47ZM41.44,32.1h1v-1.25c0-.42.27-.61.62-.61.33,0,.52.16.52.48v1.38h1v-1.68c0-.63-.46-.93-1.08-.93-.5,0-.87.18-1.07.43h0v-.37h-.97v2.55ZM39.9,29.26h1v-.6h-1v.6ZM39.9,32.1h1v-2.55h-1v2.55ZM116.67,29.48h1.24s0,2.62,0,2.62h1.13s0-2.63,0-2.63h1.24s0-.76,0-.76h-3.61s0,.76,0,.76ZM116.34,29.71c-.07-.8-.81-1.09-2.04-1.09-1.48,0-1.76.63-1.76,1.08,0,.5.27.85.97.96l1.13.17c.39.06.54.12.54.3,0,.29-.31.36-.59.36-.59,0-.73-.16-.76-.42h-1.34c.07.94.9,1.15,2.04,1.15.46,0,1.95-.01,1.95-1.16,0-.6-.38-.85-1.01-.96-.33-.06-1.2-.18-1.48-.23-.17-.03-.25-.09-.25-.21,0-.22.21-.33.59-.33.52,0,.7.16.73.39h1.28ZM120.53,30.41c0,1.4,1.01,1.8,2.2,1.79,1.19,0,2.2-.39,2.2-1.8,0-1.4-1.01-1.8-2.2-1.79-1.19,0-2.2.39-2.2,1.8ZM121.72,30.41c0-.71.41-1.04,1.01-1.04.61,0,1.01.33,1.01,1.04,0,.71-.4,1.04-1.01,1.04s-1.01-.33-1.01-1.04ZM126.57,29.47h1.08c.27,0,.42.14.42.36,0,.23-.15.37-.42.37h-1.08s0-.74,0-.74ZM125.44,32.1h1.13s0-1.13,0-1.13h1.03c.28,0,.46.09.46.62,0,.16,0,.36.07.5h1.24c-.14-.17-.16-.38-.21-1.05-.03-.36-.19-.54-.41-.61h0c.3-.09.54-.33.54-.78,0-.56-.3-.94-1.13-.94h-2.71s0,3.38,0,3.38ZM129.83,32.09h3.39s0-.73,0-.73h-2.26s0-.61,0-.61h2.12s0-.7,0-.7h-2.12s0-.62,0-.62h2.26s0-.73,0-.73h-3.39s0,3.38,0,3.38ZM83.56,29.47h1.08c.27,0,.42.14.42.36s-.15.37-.42.37h-1.08v-.74ZM82.4,32.1h1.13v-1.13h1.03c.28,0,.46.09.46.63,0,.16,0,.36.07.5h1.24c-.14-.17-.16-.38-.21-1.05-.03-.36-.19-.54-.41-.61h0c.3-.09.54-.33.54-.78,0-.56-.3-.94-1.13-.94h-2.71v3.38ZM86.57,32.1h1.21l.2-.55h1.48l.2.55h1.21l-1.45-3.38h-1.38l-1.47,3.38ZM89.19,30.85h-.95l.47-1.28h0l.47,1.28ZM91.22,32.1h2.3c.97,0,1.76-.36,1.76-1.69,0-1.13-.56-1.69-1.61-1.69h-2.44v3.38ZM92.34,29.47h.85c.6,0,.91.3.91.93,0,.46-.18.94-.82.94h-.94v-1.87ZM96.41,32.1h1.11l.59-2.2h0l.59,2.2h1.11l1.01-3.38h-1.09l-.53,2.28h0l-.61-2.28h-.96l-.61,2.28h0l-.53-2.28h-1.09l1.01,3.38ZM101.18,32.1h3.39v-.73h-2.26v-.61h2.12v-.7h-2.12v-.62h2.26v-.73h-3.39v3.38ZM105.04,32.1h3.19v-.79h-2.06v-2.6h-1.13v3.38ZM107.71,29.47h1.24v2.62h1.13v-2.62h1.24v-.76h-3.61v.76ZM110.8,32.1h1.06v-.94h-1.06v.94ZM36.13,32.1h3.36v-.72h-2.24v-.6h2.1v-.69h-2.1v-.61h2.24v-.72h-3.36v3.35Z"/>
  </g>
</svg>